<svg xmlns="http://www.w3.org/2000/svg" xmlns:xlink="http://www.w3.org/1999/xlink" viewBox="0 0 150 150" xmlns:v="https://vecta.io/nano"><style><![CDATA[.E{fill:#0ff}.F{fill:#fbb03b}]]></style><g class="E"><path d="M76.9 132.7c-26.3 0-47.7-21.4-47.7-47.7 0-15.9 7.9-30.7 21.1-39.6.2-.1.5-.1.7.1.1.2.1.5-.1.7-13 8.8-20.7 23.3-20.7 38.9 0 25.8 21 46.7 46.7 46.7a46.74 46.74 0 0 0 23.9-6.6c.2-.1.5-.1.7.2.1.2.1.5-.2.7-7.4 4.3-15.8 6.6-24.4 6.6z"/><path d="M50.9 46.1c-.2 0-.3-.1-.4-.2-.1-.2-.1-.5.1-.7l.9-.6c.2-.1.5-.1.7.2.1.2.1.5-.2.7l-.9.6h-.2z"/></g><path d="M54.7 43.9c-.2 0-.3-.1-.4-.3s0-.5.2-.6c4.9-2.6 10.2-4.4 15.8-5.2.3 0 .5.1.5.4s-.1.5-.4.5c-5.4.8-10.6 2.5-15.5 5-.1.2-.2.2-.2.2zm52.9 5.8c-.1 0-.2 0-.3-.1-8.5-7.3-19.3-11.3-30.4-11.3h-1.2a.47.47 0 0 1-.5-.5.47.47 0 0 1 .5-.5h1.2c11.4 0 22.4 4.1 31 11.4.2.2.2.5.1.7-.2.2-.3.3-.4.3zm-.1 71.7a.76.76 0 0 1-.4-.2c-.2-.2-.1-.5.1-.7 10.4-8.9 16.4-21.9 16.4-35.5 0-12.6-4.9-24.3-13.8-33.2-.2-.2-.2-.5 0-.7s.5-.2.7 0c9.1 9 14.1 21 14.1 33.8 0 14-6.1 27.2-16.7 36.3-.2.2-.3.2-.4.2z" class="F"/><path d="M76.9 128.7c-6.9 0-13.6-1.6-19.7-4.7-5.9-3-11.1-7.3-15.1-12.5-.2-.2-.1-.5.1-.7s.5-.1.7.1c8.2 10.7 20.6 16.8 34 16.8 9 0 17.5-2.7 24.8-7.9.2-.2.5-.1.7.1s.1.5-.1.7c-7.5 5.3-16.3 8.1-25.4 8.1zM40.6 109c-.2 0-.3-.1-.4-.2-4.6-7.1-7-15.3-7-23.7 0-10.5 3.8-20.7 10.7-28.6 6.8-7.9 16.2-13 26.4-14.6.3 0 .5.1.5.4s-.1.5-.4.5C49.7 45.9 34.1 64.1 34.1 85c0 8.3 2.4 16.3 6.8 23.2.1.2.1.5-.1.7 0 .1-.1.1-.2.1zm51-64.1h-.2c-4.7-1.7-9.6-2.5-14.6-2.5h-1.1a.47.47 0 0 1-.5-.5.47.47 0 0 1 .5-.5h1.1c5.1 0 10.1.9 14.9 2.6.2.1.4.4.3.6 0 .2-.2.3-.4.3z" class="E"/><path d="M107.2 116.3c-.1 0-.2 0-.3-.1-.2-.2-.2-.5 0-.7a42.42 42.42 0 0 0 12.7-30.4c0-16.8-9.9-32.2-25.3-39-.2-.1-.3-.4-.2-.6s.4-.3.6-.2c15.7 7 25.9 22.7 25.9 39.9 0 11.8-4.6 22.8-13 31.1-.1-.1-.2 0-.4 0z" class="F"/><g class="E"><path d="M76.9 124.7c-21.2 0-38.6-16.6-39.6-37.7a.47.47 0 0 1 .5-.5.47.47 0 0 1 .5.5c1 20.7 18 36.8 38.7 36.8 8.8 0 17.1-2.9 24.1-8.4.2-.2.5-.1.7.1s.1.5-.1.7c-7.2 5.6-15.8 8.5-24.8 8.5zM37.7 83.5a.47.47 0 0 1-.5-.5 40.14 40.14 0 0 1 10.4-24.8c.2-.2.5-.2.7 0s.2.5 0 .7c-6.1 6.6-9.7 15.2-10.2 24.2.1.2-.1.4-.4.4z"/><path d="M48 59c-.1 0-.2 0-.3-.1-.2-.2-.2-.5 0-.7 5.9-6.5 13.9-10.8 22.5-12.3.3 0 .5.1.5.4s-.1.5-.4.5c-8.4 1.4-16.2 5.7-22 12 0 .1-.2.2-.3.2z"/></g><path d="M114.1 97.8h-.1c-.2-.1-.4-.4-.3-.6 1.3-3.9 1.9-8 1.9-12.2 0-21.4-17.4-38.7-38.7-38.7h-1.3a.47.47 0 0 1-.5-.5.47.47 0 0 1 .5-.5h1.3c21.9 0 39.7 17.8 39.7 39.7 0 4.3-.7 8.5-2 12.5a.55.55 0 0 1-.5.3z" class="F"/><path d="M106 111.8c-.1 0-.2 0-.3-.1-.2-.2-.2-.5 0-.7a38.24 38.24 0 0 0 6.9-10.8c.1-.2.4-.4.6-.3s.4.4.3.6c-1.7 4.1-4.1 7.8-7.1 11.1a.76.76 0 0 1-.4.2z" class="E"/><path d="M86.6 119.4a.55.55 0 0 1-.5-.3c-.1-.3.1-.5.3-.6a34.13 34.13 0 0 0 13.1-7.1c.2-.2.5-.1.7.1s.1.5-.1.7c-4 3.4-8.5 5.9-13.5 7.3v-.1z" class="F"/><path d="M76.9 120.7c-19.7 0-35.7-16-35.7-35.7 0-17.1 12.2-31.8 28.9-35.1.3 0 .5.1.6.4 0 .3-.1.5-.4.6C54 54.1 42.1 68.4 42.1 85.1c0 19.2 15.6 34.7 34.7 34.7 2.2 0 4.3-.2 6.4-.6.3 0 .5.1.6.4 0 .3-.1.5-.4.6-2.1.3-4.3.5-6.5.5z" class="E"/><path d="M107.4 67.9c-.2 0-.3-.1-.4-.2-6.2-10.7-17.7-17.3-30.1-17.3h-1.3a.47.47 0 0 1-.5-.5.47.47 0 0 1 .5-.5h1.3c6.4 0 12.6 1.7 18.1 4.9 5.3 3.1 9.7 7.6 12.8 12.9.1.2.1.5-.2.7-.1-.1-.2 0-.2 0zm-3.2 39.8c-.1 0-.2 0-.3-.1-.2-.2-.2-.5-.1-.7 5-6.2 7.8-13.9 7.8-21.9 0-5-1-9.8-3.1-14.3-.1-.2 0-.5.2-.6s.5 0 .6.2c2.1 4.6 3.1 9.6 3.1 14.7 0 8.2-2.8 16.2-8 22.5.1.2 0 .2-.2.2z" class="F"/><path d="M76.9 116.8c-17.5 0-31.7-14.2-31.7-31.7 0-6.2 1.8-12.2 5.1-17.3.1-.2.4-.3.7-.1.2.1.3.4.1.7-3.3 5-5 10.8-5 16.8 0 17 13.8 30.8 30.8 30.8 7.7 0 15-2.8 20.6-8 .2-.2.5-.2.7 0s.2.5 0 .7c-5.9 5.1-13.4 8.1-21.3 8.1zM52.5 66c-.1 0-.2 0-.3-.1-.2-.2-.2-.5-.1-.7 4.5-5.6 10.8-9.5 17.8-11.1.3-.1.5.1.6.4s-.1.5-.4.6c-6.8 1.5-12.9 5.3-17.2 10.7-.1.1-.2.2-.4.2zm30.7-11.1c-.1 0-.1 0 0 0-2.5-.5-5-.7-7.5-.6a.47.47 0 0 1-.5-.5.47.47 0 0 1 .5-.5c2.6-.1 5.2.1 7.7.6.3.1.4.3.4.6-.2.3-.4.4-.6.4z" class="E"/><path d="M102 104.1c-.1 0-.2 0-.3-.1-.2-.2-.3-.5-.1-.7a30.62 30.62 0 0 0 6-18.3c0-13.4-8.6-25.2-21.3-29.3-.3-.1-.4-.3-.3-.6s.3-.4.6-.3c6.3 2 11.8 6 15.8 11.3 4.1 5.5 6.2 12 6.2 18.8s-2.1 13.4-6.2 18.8c-.1.3-.2.4-.4.4z" class="F"/><g class="E"><path d="M68.9 23.4H70v.4h-1.1z"/><path d="M69.6 23.2h1.1v.7h-1.1zm-.8 1.6h-.3-.8c-.2-.4-.3-.8-.3-1.2s.1-.9.3-1.2h.8.3l.6 1.2-.6 1.2zm-.1-6.6h1.1v.4h-1.1z"/><path d="M69.4 18.1h1.1v.7h-1.1zm-.7 1.6h-.3-.8c-.2-.4-.3-.8-.3-1.2s.1-.9.3-1.2h.8.3l.6 1.2-.6 1.2zm-.2-6.6h1.1v.4h-1.1z"/><path d="M69.2 12.9h1.1v.7h-1.1zm-.7 1.6h-.3-.8c-.2-.4-.3-.8-.3-1.2s.1-.9.3-1.2h.8.3l.6 1.2-.6 1.2z"/><path d="M76.5 30.9h-3.2c-.4 0-.7-.3-.8-.7 0 0-.2-1.1-.9-1.8-.7-.8-1.1-1.7-1.1-2.8L70 10.3c0-.6.2-1.2.7-1.6.4-.4 1.1-.6 1.7-.5l4.2.3c.5 0 .8.4.8.8 0 .5-.4.8-.8.8-1.7 0-3.3-.1-4.4-.3-.2 0-.3.1-.3.1-.1.1-.1.2-.1.3l.5 15.3a2.61 2.61 0 0 0 .7 1.7c.6.6.9 1.4 1.1 1.9h2.6c.5 0 .8.4.8.8-.2.7-.6 1-1 1zm-21.2 72.6c-.2 0-.3 0-.5-.1-.4-.3-.5-.8-.2-1.2.2-.2.3-.5.5-.7 1.8-2.9 2.6-6.5 2.2-9.7l-.8-4.7c-.5-2.4-1-5-1-7.6 0-4.7 1.8-8.3 5.4-10.5 3.5-2.2 7.8-2.7 10.9-2.7h.7c.5 0 .8.4.8.8 0 .5-.4.8-.8.8h-.7c-4.4 0-14.6 1.1-14.6 11.6 0 2.4.5 4.8 1 7.2.3 1.6.6 3.2.8 4.8.4 3.6-.5 7.5-2.5 10.7-.2.3-.3.5-.5.8s-.4.5-.7.5z"/></g><path d="M81.2 138.5h-9.4c-9.7 0-19.2-1.3-22.9-11h0c-.2-.4 0-.9.5-1.1.4-.2.9 0 1.1.5 3.4 8.7 12.3 9.9 21.4 9.9h9.4c9.1 0 18-1.2 21.4-9.9l.6-1.8c1.2-4.2.9-8.9-.6-12.8-.9-2.4-2.4-4.5-3.9-6.7-.7-1.1-1.5-2.2-2.2-3.3-2-3.2-2.9-7.2-2.5-10.7.2-1.6.5-3.2.8-4.8.5-2.5 1-4.8 1-7.2 0-.9-.1-1.7-.2-2.5-.1-.5.2-.9.7-1s.9.2 1 .7c.2.9.2 1.8.2 2.8 0 2.6-.5 5.1-1 7.6-.3 1.5-.6 3.1-.8 4.7-.4 3.2.4 6.7 2.2 9.7.7 1.1 1.4 2.2 2.2 3.2 1.5 2.2 3.1 4.4 4.1 7 1.6 4.3 1.9 9.4.6 13.9l-.6 2c-3.9 9.5-13.4 10.8-23.1 10.8z" class="F"/><path fill="#fcee21" d="M95.3 74.6c-.3 0-.6-.2-.7-.5l-.6-1c-.3-.4-.2-.9.2-1.2s.9-.2 1.2.2.5.8.7 1.2.1.9-.4 1.1c-.1.2-.2.2-.4.2z"/><g class="F"><path d="M92.4 71.1c-.2 0-.4-.1-.5-.2-2-1.5-4.7-2.5-8-2.8-.5 0-.8-.5-.7-.9 0-.5.5-.8.9-.7 3.6.4 6.6 1.5 8.8 3.2.4.3.4.8.2 1.2-.2.1-.4.2-.7.2zm-.7 24.5c-1.9-11.5-8.5-14.2-8.5-14.2 1.9 4.5 1.9 11.9-4.8 15.5v1.4c0 4.2 2.3 6.9 6.7 6.9s7.8-2.1 6.6-9.6z"/><path d="M80.4 79.4v.7s-1.4.4-4 .4v.2a7.13 7.13 0 0 1 7.1 7.1 7.13 7.13 0 0 1-7.1 7.1v2.2c5.1 0 9.3-4.2 9.3-9.3.1-3.7-2.1-6.9-5.3-8.4z"/></g><path d="M69.4 87.8a7.13 7.13 0 0 1 7.1-7.1v-.2c-2.6 0-4-.4-4-.4v-.7c-3.2 1.5-5.4 4.7-5.4 8.4 0 5.1 4.2 9.3 9.3 9.3v-2.2c-3.8 0-7-3.2-7-7.1z" class="E"/><g class="F"><path d="M82.9 23.4H84v.4h-1.1z"/><use xlink:href="#C"/><use xlink:href="#C" x="0.2" y="-5.1"/><path d="M82.6 12.9h1.1v.7h-1.1zm1.8 1.6h.3.8c.2-.4.3-.8.3-1.2s-.1-.9-.3-1.2h-.8-.3l-.6 1.2.6 1.2z"/><path d="M79.8 35.5c-.5 0-.8-.4-.8-.8l-.1-4.6v-.2c0-.1.3-1.6 1.3-2.6.4-.5.7-1.1.7-1.7l.5-15.3c0-.2-.1-.3-.1-.3-.1 0-.2-.1-.3-.1-.4 0-.8.1-1.2.1-.5 0-.9-.3-.9-.8s.3-.9.8-.9c.4 0 .8-.1 1.2-.1.6-.1 1.2.1 1.7.5.4.4.7 1 .7 1.6l-.5 15.3c0 1-.4 2-1.1 2.8-.5.6-.8 1.5-.9 1.8l.1 4.5c-.3.5-.6.8-1.1.8z"/></g><g class="E"><path d="M76.5 81.3c-2.7 0-4.1-.4-4.2-.4-.4-.1-.6-.4-.6-.8l.7-50c0-.5.4-.8.8-.8h3.2c.5 0 .8.4.8.8 0 .5-.4.8-.8.8H74l-.7 48.5c.6.1 1.7.2 3.1.2 1.5 0 2.5-.1 3.1-.2L79.2 57c0-.5.4-.8.8-.8.5 0 .8.4.8.8l.3 23.1c0 .4-.3.7-.6.8.1.1-1.4.4-4 .4zM74.7 13a1.06 1.06 0 0 1-1.3 1.3 1.21 1.21 0 0 1-.7-.7 1.06 1.06 0 0 1 1.3-1.3 1.21 1.21 0 0 1 .7.7z"/><circle cx="73.9" cy="18.4" r="1"/><path d="M75 23.3a1.06 1.06 0 0 1-1.3 1.3 1.21 1.21 0 0 1-.7-.7 1.06 1.06 0 0 1 1.3-1.3 1.21 1.21 0 0 1 .7.7z"/></g><g class="F"><use xlink:href="#D"/><circle cx="79.1" cy="18.4" r="1"/><use xlink:href="#D" x="-0.3" y="10.3"/></g><path d="M66.6 107.6v3.9h0 0c5.3 0 3.9 2 9.8 2v-5.9h-9.8z" class="E"/><path d="M86.3 107.6h-9.8v5.9h0c5.9 0 4.6-2 9.8-2h0 0v-3.9z" class="F"/><g fill="#1b1464"><path d="M71.3 110.3c-.2 0-.3-.1-.4-.3 0-.2.1-.4.3-.4l10.3-.7c.2 0 .4.1.4.3s-.1.4-.3.4l-10.3.7z"/><use xlink:href="#A"/><use xlink:href="#A" x="1.4"/><use xlink:href="#A" x="2.8"/><path d="M77.6 111.2c.1.4-.2.7-.5.5-.1 0-.2-.1-.2-.2-.1-.4.2-.7.5-.5l.2.2zm1.4 0c.1.4-.2.7-.5.5-.1 0-.2-.1-.2-.2-.1-.4.2-.7.5-.5l.2.2zm1.4 0c.1.4-.2.7-.5.5-.1 0-.2-.1-.2-.2-.1-.4.2-.7.5-.5l.2.2z"/></g><g class="E"><use xlink:href="#E"/><path d="M87.5 63.8c-.5 0-1-.2-1.4-.4a1.75 1.75 0 0 1-.7-1.4c-.1-1.2.9-2.3 2.3-2.6.8-.2 1.5 0 2.1.4a1.75 1.75 0 0 1 .7 1.4h0c.1 1.2-.9 2.3-2.3 2.6-.2-.1-.5 0-.7 0zm.8-2.9H88c-.6.1-1 .6-1 .9 0 0 0 .1.1.1.1.1.4.2.7.1.6-.1 1-.6 1-.9 0 0 0-.1-.1-.1 0 0-.2-.1-.4-.1zm9.3-1.9c0 .7-.7 1.5-1.6 1.7-1 .2-1.8-.2-1.8-1s.7-1.5 1.6-1.7 1.7.2 1.8 1z"/><path d="M95.4 61.6c-.5 0-1-.2-1.4-.4a1.75 1.75 0 0 1-.7-1.4c-.1-1.2.9-2.3 2.3-2.6.8-.2 1.5 0 2.1.4a1.75 1.75 0 0 1 .7 1.4h0c.1 1.2-.9 2.3-2.3 2.6h-.7zm.8-2.8h-.3c-.6.1-1 .6-1 .9 0 0 0 .1.1.1.1.1.4.2.7.1.6-.1 1-.6 1-.9h0s0-.1-.1-.1c0-.1-.2-.1-.4-.1z"/><path d="M89.6 62c-.5 0-.8-.4-.8-.8v-9.9c0-.4.3-.7.6-.8l7.9-2.1c.3-.1.5 0 .7.1.2.2.3.4.3.7v9.9c0 .5-.4.8-.8.8-.5 0-.8-.4-.8-.8v-8.8L90.5 52v9.2c0 .5-.4.8-.9.8z"/></g><g class="F"><use xlink:href="#E" x="-40.5" y="26.3"/><path d="M47 90c-.5 0-1-.2-1.4-.4a1.75 1.75 0 0 1-.7-1.4c-.1-1.2.9-2.3 2.3-2.6.8-.2 1.5 0 2.1.4a1.75 1.75 0 0 1 .7 1.4c.1 1.2-.9 2.3-2.3 2.6H47zm.8-2.8h-.3c-.6.1-1 .6-1 .9 0 0 0 .1.1.1.1.1.4.2.7.1.6-.1 1-.6 1-.9 0 0 0-.1-.1-.1s-.2-.1-.4-.1z"/><path d="M49.1 88.3c-.5 0-.8-.4-.8-.8v-9.9c0-.5.4-.8.8-.8.5 0 .8.4.8.8v9.9c.1.5-.3.8-.8.8z"/></g><g class="E"><path d="M103.7 93.4c0 .7-.7 1.5-1.6 1.7-1 .2-1.8-.2-1.8-1 0-.7.7-1.5 1.6-1.7s1.7.3 1.8 1z"/><path d="M101.5 96c-.5 0-1-.2-1.4-.4a1.75 1.75 0 0 1-.7-1.4c-.1-1.2.9-2.3 2.3-2.6.8-.2 1.5 0 2.1.4a1.75 1.75 0 0 1 .7 1.4c.1 1.2-.9 2.3-2.3 2.6h-.7zm.8-2.8h-.3c-.6.1-1 .6-1 .9 0 0 0 .1.1.1.1.1.4.2.7.1.6-.1 1-.6 1-.9 0 0 0-.1-.1-.1 0 0-.2-.1-.4-.1z"/><path d="M103.7 94.3c-.5 0-.8-.4-.8-.8v-9.9c0-.5.4-.8.8-.8.5 0 .8.4.8.8v9.9c0 .5-.4.8-.8.8z"/><path d="M103.7 83.6c0 1.4 1.4 2.2 2.2 3.1.8 1 1.6 1.9 1.8 3.3s-.3 2.7-1.1 3.8c0 0 1.7-2.3.6-4.4-.9-1.8-2.6-2.2-3.5-2.7v-3.1z"/><path d="M106.6 94.7c-.2 0-.3 0-.5-.1-.4-.3-.5-.8-.2-1.1a.76.76 0 0 0 .2-.4c.3-.6.9-2 .3-3.2s-1.6-1.6-2.5-2l-.6-.3c-.3-.1-.5-.4-.5-.7v-3.2c0-.5.4-.8.8-.8.5 0 .8.4.8.8 0 .7.4 1.1 1.2 1.8.3.3.6.5.8.8.9 1.1 1.8 2.2 2 3.7.2 1.3-.1 2.6-.9 3.9l-.3.5c-.1.2-.4.3-.6.3z"/><use xlink:href="#B"/><use xlink:href="#B" y="3.8"/><use xlink:href="#B" y="7.5"/><use xlink:href="#B" y="11.3"/><use xlink:href="#B" y="15.1"/><use xlink:href="#B" y="18.8"/></g><defs><path id="A" d="M73.3 111.2c.1.4-.2.7-.5.5-.1 0-.2-.1-.2-.2-.1-.4.2-.7.5-.5.1 0 .2.1.2.2z"/><path id="B" d="M80.1 59h-4.6a.47.47 0 1 1 0-1h4.6a.47.47 0 1 1 0 1z"/><path id="C" d="M82.2 23.2h1.1v.7h-1.1zm1.9 1.6h.3.8c.2-.4.3-.8.3-1.2s-.1-.9-.3-1.2h-.8-.3l-.6 1.2.6 1.2zm-1-6.6h1.1v.4h-1.1z"/><path id="D" d="M78.2 13a1.06 1.06 0 0 0 1.3 1.3 1.21 1.21 0 0 0 .7-.7 1.06 1.06 0 0 0-1.3-1.3 1.21 1.21 0 0 0-.7.7z"/><path id="E" d="M89.6 61.1c0 .7-.7 1.5-1.6 1.7-1 .2-1.8-.2-1.8-1 0-.7.7-1.5 1.6-1.7 1-.2 1.8.3 1.8 1z"/></defs></svg>